<?xml version="1.0" encoding="UTF-8"?>
<!DOCTYPE svg PUBLIC "-//W3C//DTD SVG 1.1//EN" "http://www.w3.org/Graphics/SVG/1.1/DTD/svg11.dtd">
<!-- Creator: CorelDRAW -->
<svg xmlns="http://www.w3.org/2000/svg" xml:space="preserve" width="1.2838mm" height="1.9307mm" version="1.1" style="shape-rendering:geometricPrecision; text-rendering:geometricPrecision; image-rendering:optimizeQuality; fill-rule:evenodd; clip-rule:evenodd"
viewBox="0 0 3.63 5.46"
 xmlns:xlink="http://www.w3.org/1999/xlink"
 xmlns:xodm="http://www.corel.com/coreldraw/odm/2003">
 <defs>
  <style type="text/css">
   <![CDATA[
    .fil0 {fill:#FFCA28}
   ]]>
  </style>
 </defs>
 <g id="Layer_x0020_1">
  <metadata id="CorelCorpID_0Corel-Layer"/>
  <path class="fil0" d="M1.2 5.43c0.01,-0.11 0,-0.81 0,-0.98 0,-0.31 -0.04,-0.65 0.1,-0.88 0.11,-0.18 0.35,-0.3 0.56,-0.43 0.21,-0.13 0.41,-0.25 0.61,-0.38 0.36,-0.23 0.9,-0.52 1.07,-0.89 0.12,-0.26 0.09,-0.59 0.09,-0.9 0,-0.16 0,-0.33 -0,-0.49 0,-0.1 0.02,-0.41 -0.02,-0.48l-1.12 -0c-0.04,0 -0.06,-0.02 -0.06,0.1 0,0.21 0,0.43 0,0.64 0,0.19 0.02,0.44 -0.04,0.6 -0.03,0.09 -0.07,0.15 -0.12,0.2 -0.03,0.04 -0.13,0.11 -0.17,0.15 -0.12,0.09 -0.25,0.17 -0.39,0.25 -0.26,0.16 -0.53,0.32 -0.79,0.49 -0.21,0.13 -0.58,0.34 -0.75,0.53 -0.11,0.12 -0.16,0.26 -0.16,0.47l-0 0.96c0,0.21 0.13,0.24 0.27,0.36 0.1,0.09 0.83,0.64 0.92,0.68zm1.23 -2.5l-0 0.13c0,0.78 -0.01,1.62 0,2.4 0.03,-0.02 0.9,-0.68 0.99,-0.75 0.07,-0.06 0.13,-0.09 0.18,-0.18 0.05,-0.11 0.03,-0.94 0.03,-1.18 0,-0.21 -0,-1.24 -0.02,-1.29 -0.01,-0.03 -0,-0.01 -0.01,-0.03 -0.13,0.28 -0.74,0.64 -1.01,0.81 -0.05,0.03 -0.12,0.08 -0.17,0.1zm-2.42 -0c0.02,-0.01 0,0 0.02,-0.01 0.01,-0.01 0.01,-0.01 0.02,-0.02 0.01,-0.02 0.01,-0.01 0.03,-0.03 0.16,-0.17 0.32,-0.26 0.53,-0.38 0.06,-0.03 0.11,-0.06 0.16,-0.1 0.17,-0.1 0.32,-0.17 0.41,-0.37 0.09,-0.2 0.06,-0.72 0.06,-0.98 0,-0.11 0.01,-0.99 -0.02,-1.02 -0.03,-0.01 -1.09,-0.02 -1.21,-0.01l-0 2.92z"/>
 </g>
</svg>
